<svg width="226" height="38" viewBox="0 0 226 38" fill="none" xmlns="http://www.w3.org/2000/svg">
<path d="M21.9111 25.208H29.2109C29.0645 27.6006 28.4053 29.7246 27.2334 31.5801C26.0778 33.4355 24.4583 34.8841 22.375 35.9258C20.3079 36.9674 17.8177 37.4883 14.9043 37.4883C12.6257 37.4883 10.583 37.0977 8.77637 36.3164C6.96973 35.5189 5.4235 34.3796 4.1377 32.8984C2.86816 31.4173 1.89974 29.627 1.23242 27.5273C0.565104 25.4277 0.231445 23.0758 0.231445 20.4717V18.0059C0.231445 15.4017 0.573242 13.0498 1.25684 10.9502C1.95671 8.83431 2.94954 7.03581 4.23535 5.55469C5.53743 4.07357 7.0918 2.93424 8.89844 2.13672C10.7051 1.33919 12.7233 0.94043 14.9531 0.94043C17.9154 0.94043 20.4137 1.47754 22.4482 2.55176C24.499 3.62598 26.0859 5.1071 27.209 6.99512C28.3483 8.88314 29.0319 11.0316 29.2598 13.4404L21.9355 13.4404C21.8542 12.0081 21.5693 10.7956 21.0811 9.80273C20.5928 8.79362 19.8522 8.03678 18.8594 7.53223C17.8828 7.01139 16.5807 6.75098 14.9531 6.75098C13.7324 6.75098 12.6663 6.97884 11.7549 7.43457C10.8434 7.8903 10.0785 8.58203 9.45996 9.50977C8.84147 10.4375 8.3776 11.6094 8.06836 13.0254C7.77539 14.4251 7.62891 16.069 7.62891 17.957V20.4717C7.62891 22.3109 7.76725 23.9303 8.04395 25.3301C8.32064 26.7135 8.74382 27.8854 9.31348 28.8457C9.89941 29.7897 10.6481 30.5059 11.5596 30.9941C12.4873 31.4661 13.6022 31.7021 14.9043 31.7021C16.4342 31.7021 17.6956 31.458 18.6885 30.9697C19.6813 30.4814 20.4382 29.7572 20.959 28.7969C21.4961 27.8366 21.8135 26.6403 21.9111 25.208ZM48.4736 7.53223L38.8057 37H31.0176L44.2256 1.45313L49.1816 1.45313L48.4736 7.53223ZM56.5059 37L46.8135 7.53223L46.0322 1.45313H51.0371L64.3184 37L56.5059 37ZM56.0664 23.7676V29.5049H37.292V23.7676L56.0664 23.7676ZM86.1201 27.6982C86.1201 27.0635 86.0225 26.4938 85.8271 25.9893C85.6481 25.4684 85.3063 24.9964 84.8018 24.5732C84.2972 24.1338 83.5892 23.7025 82.6777 23.2793C81.7663 22.8561 80.5863 22.4167 79.1377 21.9609C77.5264 21.4401 75.9964 20.8542 74.5479 20.2031C73.1156 19.5521 71.846 18.7952 70.7393 17.9326C69.6488 17.0537 68.7861 16.0365 68.1514 14.8809C67.5329 13.7253 67.2236 12.3825 67.2236 10.8525C67.2236 9.37142 67.5492 8.02865 68.2002 6.82422C68.8512 5.60352 69.7627 4.56185 70.9346 3.69922C72.1064 2.82031 73.4899 2.14486 75.085 1.67285C76.6963 1.20085 78.4622 0.964844 80.3828 0.964844C83.0033 0.964844 85.29 1.43685 87.2432 2.38086C89.1963 3.32487 90.71 4.61882 91.7842 6.2627C92.8747 7.90658 93.4199 9.78646 93.4199 11.9023H86.1445C86.1445 10.8607 85.9248 9.94922 85.4854 9.16797C85.0622 8.37044 84.4111 7.74382 83.5322 7.28809C82.6696 6.83236 81.5791 6.60449 80.2607 6.60449C78.9912 6.60449 77.9333 6.7998 77.0869 7.19043C76.2406 7.56478 75.6058 8.07747 75.1826 8.72852C74.7594 9.36328 74.5479 10.0794 74.5479 10.877C74.5479 11.4792 74.6943 12.0244 74.9873 12.5127C75.2965 13.001 75.7523 13.4567 76.3545 13.8799C76.9567 14.3031 77.6973 14.7018 78.5762 15.0762C79.4551 15.4505 80.4723 15.8167 81.6279 16.1748C83.5648 16.7607 85.2656 17.4199 86.7305 18.1523C88.2116 18.8848 89.4486 19.7067 90.4414 20.6182C91.4342 21.5296 92.1829 22.5632 92.6875 23.7188C93.1921 24.8743 93.4443 26.1846 93.4443 27.6494C93.4443 29.1956 93.1432 30.5791 92.541 31.7998C91.9388 33.0205 91.068 34.054 89.9287 34.9004C88.7894 35.7467 87.4303 36.3896 85.8516 36.8291C84.2728 37.2686 82.5068 37.4883 80.5537 37.4883C78.7959 37.4883 77.0625 37.2604 75.3535 36.8047C73.6445 36.3327 72.0902 35.6247 70.6904 34.6807C69.307 33.7367 68.2002 32.5322 67.3701 31.0674C66.54 29.6025 66.125 27.8691 66.125 25.8672H73.4736C73.4736 26.974 73.6445 27.9098 73.9863 28.6748C74.3281 29.4398 74.8083 30.0583 75.4268 30.5303C76.0615 31.0023 76.8102 31.3441 77.6729 31.5557C78.5518 31.7673 79.512 31.873 80.5537 31.873C81.8232 31.873 82.8649 31.694 83.6787 31.3359C84.5088 30.9779 85.1191 30.4814 85.5098 29.8467C85.9167 29.2119 86.1201 28.4958 86.1201 27.6982ZM114.318 1.45313V37H107.019V1.45313L114.318 1.45313ZM125.256 1.45313V7.19043L96.252 7.19043V1.45313L125.256 1.45313ZM137.219 1.45313V37H129.919V1.45313L137.219 1.45313ZM166.931 31.2871V37L149.035 37V31.2871L166.931 31.2871ZM151.403 1.45313V37L144.079 37V1.45313L151.403 1.45313ZM193.981 31.2871V37H176.086V31.2871H193.981ZM178.454 1.45313V37H171.13V1.45313L178.454 1.45313ZM225.769 18.3965V20.0811C225.769 22.7829 225.402 25.208 224.67 27.3564C223.938 29.5049 222.904 31.3359 221.569 32.8496C220.235 34.347 218.64 35.4945 216.784 36.292C214.945 37.0895 212.902 37.4883 210.656 37.4883C208.426 37.4883 206.384 37.0895 204.528 36.292C202.689 35.4945 201.094 34.347 199.743 32.8496C198.392 31.3359 197.342 29.5049 196.594 27.3564C195.861 25.208 195.495 22.7829 195.495 20.0811V18.3965C195.495 15.6784 195.861 13.2533 196.594 11.1211C197.326 8.97266 198.36 7.1416 199.694 5.62793C201.045 4.11426 202.64 2.95866 204.479 2.16113C206.335 1.36361 208.378 0.964844 210.607 0.964844C212.854 0.964844 214.896 1.36361 216.735 2.16113C218.591 2.95866 220.186 4.11426 221.521 5.62793C222.871 7.1416 223.913 8.97266 224.646 11.1211C225.394 13.2533 225.769 15.6784 225.769 18.3965ZM218.371 20.0811V18.3477C218.371 16.4596 218.2 14.7995 217.858 13.3672C217.517 11.9349 217.012 10.7305 216.345 9.75391C215.677 8.77734 214.864 8.04492 213.903 7.55664C212.943 7.05208 211.844 6.7998 210.607 6.7998C209.37 6.7998 208.272 7.05208 207.312 7.55664C206.368 8.04492 205.562 8.77734 204.895 9.75391C204.243 10.7305 203.747 11.9349 203.405 13.3672C203.063 14.7995 202.893 16.4596 202.893 18.3477V20.0811C202.893 21.9528 203.063 23.613 203.405 25.0615C203.747 26.4938 204.252 27.7064 204.919 28.6992C205.586 29.6758 206.4 30.4163 207.36 30.9209C208.321 31.4255 209.419 31.6777 210.656 31.6777C211.893 31.6777 212.992 31.4255 213.952 30.9209C214.912 30.4163 215.718 29.6758 216.369 28.6992C217.02 27.7064 217.517 26.4938 217.858 25.0615C218.2 23.613 218.371 21.9528 218.371 20.0811Z" fill="#00A99D" fill-opacity="0.1"/>
<path d="M21.9111 25.208V23.798H20.5939L20.5043 25.1121L21.9111 25.208ZM29.2109 25.208L30.6184 25.2942L30.71 23.798H29.2109V25.208ZM27.2334 31.5801L26.0412 30.8271L26.0365 30.8346L27.2334 31.5801ZM22.375 35.9258L21.7444 34.6646L21.7404 34.6666L22.375 35.9258ZM8.77637 36.3164L8.20691 37.6064L8.2167 37.6106L8.77637 36.3164ZM4.1377 32.8984L3.06709 33.8161L3.07291 33.8228L4.1377 32.8984ZM1.23242 27.5273L-0.111389 27.9544L1.23242 27.5273ZM1.25684 10.9502L-0.0818977 10.5074L-0.0839424 10.5137L1.25684 10.9502ZM4.23535 5.55469L3.17633 4.62368L3.17056 4.63031L4.23535 5.55469ZM22.4482 2.55176L21.7899 3.79868L21.794 3.80083L22.4482 2.55176ZM27.209 6.99512L25.9971 7.71598L26.0017 7.72364L27.209 6.99512ZM29.2598 13.4404V14.8505H30.8095L30.6636 13.3076L29.2598 13.4404ZM21.9355 13.4404L20.5278 13.5204L20.6033 14.8505H21.9355V13.4404ZM21.0811 9.80273L19.8118 10.4169L19.8157 10.425L21.0811 9.80273ZM18.8594 7.53223L18.1958 8.77639L18.2081 8.78295L18.2206 8.78927L18.8594 7.53223ZM8.06836 13.0254L6.69073 12.7245L6.68822 12.7365L8.06836 13.0254ZM8.04395 25.3301L6.66066 25.6035L6.66128 25.6066L8.04395 25.3301ZM9.31348 28.8457L8.10076 29.5651L8.10798 29.5773L8.11544 29.5893L9.31348 28.8457ZM11.5596 30.9941L10.8937 32.2371L10.9069 32.2441L10.9202 32.2509L11.5596 30.9941ZM20.959 28.7969L19.7283 28.1086L19.7239 28.1166L19.7195 28.1246L20.959 28.7969ZM21.9111 26.6181H29.2109V23.798L21.9111 23.798V26.6181ZM27.8035 25.1218C27.6702 27.3 27.0749 29.1904 26.0412 30.8271L28.4256 32.333C29.7356 30.2588 30.4587 27.9012 30.6184 25.2942L27.8035 25.1218ZM26.0365 30.8346C25.0276 32.4546 23.6109 33.7313 21.7444 34.6646L23.0056 37.187C25.3058 36.0369 27.128 34.4165 28.4303 32.3255L26.0365 30.8346ZM21.7404 34.6666C19.9145 35.5868 17.6529 36.0782 14.9043 36.0782V38.8983C17.9825 38.8983 20.7014 38.3481 23.0096 37.185L21.7404 34.6666ZM14.9043 36.0782C12.7881 36.0782 10.9403 35.7159 9.33603 35.0222L8.2167 37.6106C10.2257 38.4794 12.4632 38.8983 14.9043 38.8983V36.0782ZM9.34581 35.0265C7.72784 34.3122 6.35115 33.2972 5.20248 31.9741L3.07291 33.8228C4.49585 35.4619 6.21161 36.7255 8.20693 37.6064L9.34581 35.0265ZM5.20829 31.9808C4.07674 30.6606 3.19367 29.0429 2.57623 27.1002L-0.111389 27.9544C0.605804 30.211 1.65959 32.174 3.0671 33.8161L5.20829 31.9808ZM2.57623 27.1002C1.95996 25.1612 1.64149 22.9566 1.64149 20.4717H-1.1786C-1.1786 23.1951 -0.82975 25.6942 -0.111389 27.9544L2.57623 27.1002ZM1.64149 20.4717V18.0059H-1.1786V20.4717H1.64149ZM1.64149 18.0059C1.64149 15.5241 1.96729 13.3227 2.59761 11.3867L-0.0839424 10.5137C-0.820808 12.7769 -1.1786 15.2793 -1.1786 18.0059H1.64149ZM2.59555 11.393C3.2448 9.43017 4.15214 7.80144 5.30014 6.47906L3.17056 4.63031C1.74695 6.27017 0.668613 8.23845 -0.0818825 10.5074L2.59555 11.393ZM5.29436 6.48568C6.46106 5.15856 7.84828 4.14163 9.46788 3.42667L8.329 0.846765C6.33531 1.72686 4.61382 2.98857 3.17635 4.62369L5.29436 6.48568ZM9.46788 3.42667C11.0733 2.71796 12.8941 2.35048 14.9531 2.35048V-0.469621C12.5525 -0.469621 10.3368 -0.039577 8.329 0.846765L9.46788 3.42667ZM14.9531 2.35048C17.75 2.35048 20.0083 2.85798 21.7899 3.79867L23.1066 1.30484C20.8192 0.0971017 18.0807 -0.469621 14.9531 -0.469621V2.35048ZM21.794 3.80083C23.6266 4.76078 25.0148 6.06452 25.9971 7.71597L28.4209 6.27427C27.1571 4.14967 25.3714 2.49118 23.1025 1.30269L21.794 3.80083ZM26.0017 7.72364C27.0213 9.4133 27.6461 11.3544 27.856 13.5732L30.6636 13.3076C30.4177 10.7088 29.6753 8.35298 28.4163 6.26659L26.0017 7.72364ZM29.2598 12.0304L21.9355 12.0304V14.8505L29.2598 14.8505V12.0304ZM23.3433 13.3604C23.2543 11.7931 22.9387 10.3849 22.3464 9.18045L19.8157 10.425C20.2 11.2063 20.4541 12.2232 20.5278 13.5204L23.3433 13.3604ZM22.3503 9.18857C21.7288 7.90401 20.7678 6.92037 19.4982 6.27519L18.2206 8.78927C18.9367 9.1532 19.4568 9.68324 19.8118 10.4169L22.3503 9.18857ZM19.5229 6.28806C18.2686 5.61907 16.7112 5.34093 14.9531 5.34093V8.16103C16.4502 8.16103 17.4971 8.40372 18.1958 8.77639L19.5229 6.28806ZM14.9531 5.34093C13.5564 5.34093 12.2666 5.60223 11.1243 6.17338L12.3855 8.69576C13.0661 8.35546 13.9084 8.16103 14.9531 8.16103V5.34093ZM11.1243 6.17338C9.97304 6.74901 9.02816 7.61546 8.28673 8.72761L10.6332 10.2919C11.1287 9.5486 11.7138 9.03159 12.3855 8.69576L11.1243 6.17338ZM8.28673 8.72761C7.54631 9.83824 7.02684 11.1857 6.69078 12.7245L9.44594 13.3262C9.72837 12.033 10.1366 11.0368 10.6332 10.2919L8.28673 8.72761ZM6.68822 12.7365C6.37021 14.2559 6.21886 16.0008 6.21886 17.957L9.03896 17.957C9.03896 16.1372 9.18057 14.5944 9.4485 13.3143L6.68822 12.7365ZM6.21886 17.957V20.4717L9.03896 20.4717V17.957L6.21886 17.957ZM6.21886 20.4717C6.21886 22.3779 6.36193 24.0923 6.66066 25.6035L9.42723 25.0566C9.17258 23.7684 9.03896 22.2439 9.03896 20.4717L6.21886 20.4717ZM6.66128 25.6066C6.96134 27.1069 7.43163 28.4372 8.10076 29.5651L10.5262 28.1263C10.056 27.3337 9.67994 26.3202 9.42661 25.0535L6.66128 25.6066ZM8.11544 29.5893C8.82183 30.7274 9.74791 31.6232 10.8937 32.2371L12.2254 29.7512C11.5483 29.3885 10.977 28.8521 10.5115 28.1021L8.11544 29.5893ZM10.9202 32.2509C12.0895 32.8458 13.4345 33.1122 14.9043 33.1122V30.2921C13.7699 30.2921 12.8852 30.0865 12.199 29.7374L10.9202 32.2509ZM14.9043 33.1122C16.5722 33.1122 18.0648 32.8478 19.3108 32.235L18.0662 29.7044C17.3265 30.0682 16.2963 30.2921 14.9043 30.2921V33.1122ZM19.3108 32.235C20.5622 31.6196 21.5364 30.6898 22.1985 29.4691L19.7195 28.1246C19.3399 28.8245 18.8004 29.3433 18.0662 29.7044L19.3108 32.235ZM22.1896 29.4852C22.8546 28.2963 23.2102 26.8834 23.3179 25.3039L20.5043 25.1121C20.4167 26.3972 20.1376 27.3769 19.7283 28.1086L22.1896 29.4852ZM48.4736 7.53223L49.8134 7.97179L49.8578 7.83664L49.8742 7.69535L48.4736 7.53223ZM38.8057 37L38.8057 38.41H39.827L40.1454 37.4396L38.8057 37ZM31.0176 37L29.6958 36.5089L28.9894 38.41H31.0176L31.0176 37ZM44.2256 1.45313V0.0430746H43.2453L42.9038 0.962005L44.2256 1.45313ZM49.1816 1.45313L50.5822 1.61625L50.7654 0.0430746H49.1816V1.45313ZM56.5059 37L55.1664 37.4406L55.4853 38.41H56.5059L56.5059 37ZM46.8135 7.53223L45.4149 7.71196L45.4321 7.84519L45.474 7.97279L46.8135 7.53223ZM46.0322 1.45313V0.0430746H44.4294L44.6337 1.63286L46.0322 1.45313ZM51.0371 1.45313L52.358 0.959614L52.0155 0.0430746H51.0371V1.45313ZM64.3184 37L64.3184 38.41H66.3504L65.6392 36.5065L64.3184 37ZM56.0664 23.7676H57.4765V22.3575H56.0664V23.7676ZM56.0664 29.5049V30.9149H57.4765V29.5049H56.0664ZM37.292 29.5049H35.8819V30.9149H37.292V29.5049ZM37.292 23.7676V22.3575H35.8819V23.7676H37.292ZM47.1339 7.09266L37.4659 36.5604L40.1454 37.4396L49.8134 7.97179L47.1339 7.09266ZM38.8057 35.59H31.0176L31.0176 38.41H38.8057L38.8057 35.59ZM32.3393 37.4911L45.5473 1.94425L42.9038 0.962005L29.6958 36.5089L32.3393 37.4911ZM44.2256 2.86318L49.1816 2.86318V0.0430746L44.2256 0.0430746V2.86318ZM47.7811 1.29L47.0731 7.36911L49.8742 7.69535L50.5822 1.61625L47.7811 1.29ZM57.8453 36.5594L48.1529 7.09166L45.474 7.97279L55.1664 37.4406L57.8453 36.5594ZM48.212 7.35249L47.4308 1.27339L44.6337 1.63286L45.4149 7.71196L48.212 7.35249ZM46.0322 2.86318H51.0371V0.0430746L46.0322 0.0430746V2.86318ZM49.7162 1.94664L62.9975 37.4935L65.6392 36.5065L52.358 0.959614L49.7162 1.94664ZM64.3184 35.59L56.5059 35.59L56.5059 38.41L64.3184 38.41L64.3184 35.59ZM54.6564 23.7676V29.5049H57.4765V23.7676H54.6564ZM56.0664 28.0948H37.292V30.9149H56.0664V28.0948ZM38.702 29.5049V23.7676H35.8819V29.5049H38.702ZM37.292 25.1776H56.0664V22.3575L37.292 22.3575V25.1776ZM85.8271 25.9893L84.4937 26.4476L84.5024 26.4731L84.5122 26.4983L85.8271 25.9893ZM84.8018 24.5732L83.8757 25.6365L83.8856 25.6452L83.8956 25.6536L84.8018 24.5732ZM79.1377 21.9609L78.704 23.3027L78.7145 23.306L79.1377 21.9609ZM74.5479 20.2031L73.9644 21.4868L73.9698 21.4893L74.5479 20.2031ZM70.7393 17.9326L69.8544 19.0305L69.8634 19.0377L69.8724 19.0448L70.7393 17.9326ZM68.1514 14.8809L66.9082 15.5462L66.9118 15.553L66.9155 15.5597L68.1514 14.8809ZM68.2002 6.82422L69.4406 7.49473L69.4444 7.48777L68.2002 6.82422ZM70.9346 3.69922L71.7705 4.83483L71.7806 4.82726L70.9346 3.69922ZM75.085 1.67285L74.6886 0.319658L74.6849 0.320759L75.085 1.67285ZM91.7842 6.2627L90.6038 7.03405L90.6092 7.04216L91.7842 6.2627ZM93.4199 11.9023V13.3124L94.83 13.3124V11.9023L93.4199 11.9023ZM86.1445 11.9023H84.7345V13.3124H86.1445V11.9023ZM85.4854 9.16797L84.2398 9.82888L84.2479 9.84417L84.2564 9.85926L85.4854 9.16797ZM83.5322 7.28809L82.8736 8.53488L82.8832 8.53986L83.5322 7.28809ZM77.0869 7.19043L77.6573 8.47997L77.6676 8.47542L77.6778 8.4707L77.0869 7.19043ZM75.1826 8.72852L76.3559 9.51067L76.3604 9.50385L76.3649 9.49698L75.1826 8.72852ZM74.9873 12.5127L73.7782 13.2382L73.787 13.2528L73.7961 13.2671L74.9873 12.5127ZM76.3545 13.8799L77.1652 12.7262L76.3545 13.8799ZM81.6279 16.1748L81.2106 17.5217L81.2196 17.5244L81.6279 16.1748ZM86.7305 18.1523L86.0999 19.4135L86.1054 19.4163L86.7305 18.1523ZM90.4414 20.6182L89.4878 21.6569L90.4414 20.6182ZM92.6875 23.7188L91.3952 24.283L92.6875 23.7188ZM89.9287 34.9004L89.0879 33.7685L89.9287 34.9004ZM75.3535 36.8047L74.9781 38.1639L74.9902 38.1671L75.3535 36.8047ZM70.6904 34.6807L69.8957 35.8454L69.902 35.8497L70.6904 34.6807ZM66.125 25.8672V24.4571H64.715V25.8672H66.125ZM73.4736 25.8672H74.8837V24.4571H73.4736V25.8672ZM75.4268 30.5303L74.5713 31.6512L74.5783 31.6565L74.5854 31.6618L75.4268 30.5303ZM77.6729 31.5557L77.3369 32.9251L77.3428 32.9265L77.6729 31.5557ZM83.6787 31.3359L83.1202 30.0412L83.1108 30.0453L83.6787 31.3359ZM85.5098 29.8467L84.3227 29.0857L84.3157 29.0966L84.3089 29.1077L85.5098 29.8467ZM87.5302 27.6982C87.5302 26.919 87.4101 26.1726 87.1421 25.4802L84.5122 26.4983C84.6348 26.815 84.7101 27.208 84.7101 27.6982H87.5302ZM87.1606 25.5309C86.8833 24.7241 86.3701 24.0483 85.7079 23.4929L83.8956 25.6536C84.2425 25.9445 84.4129 26.2127 84.4937 26.4476L87.1606 25.5309ZM85.7278 23.5099C85.0866 22.9514 84.2494 22.4544 83.2715 22.0004L82.0839 24.5582C82.929 24.9506 83.5078 25.3162 83.8757 25.6365L85.7278 23.5099ZM83.2715 22.0004C82.2844 21.542 81.0415 21.0817 79.5609 20.6159L78.7145 23.306C80.1311 23.7516 81.2482 24.1702 82.0839 24.5582L83.2715 22.0004ZM79.5714 20.6192C78.0059 20.1132 76.5244 19.5455 75.1259 18.917L73.9698 21.4893C75.4684 22.1628 77.0468 22.767 78.704 23.3026L79.5714 20.6192ZM75.1313 18.9195C73.7879 18.3088 72.6157 17.6074 71.6061 16.8205L69.8724 19.0448C71.0764 19.9831 72.4432 20.7953 73.9644 21.4868L75.1313 18.9195ZM71.6241 16.8348C70.6678 16.064 69.928 15.1865 69.3872 14.202L66.9155 15.5597C67.6442 16.8864 68.6297 18.0434 69.8544 19.0305L71.6241 16.8348ZM69.3946 14.2155C68.9026 13.2964 68.6337 12.1893 68.6337 10.8525H65.8136C65.8136 12.5757 66.1631 14.1542 66.9082 15.5462L69.3946 14.2155ZM68.6337 10.8525C68.6337 9.58588 68.9099 8.47657 69.4406 7.49472L66.9598 6.15372C66.1884 7.58072 65.8136 9.15696 65.8136 10.8525H68.6337ZM69.4444 7.48777C69.9911 6.46255 70.7592 5.57918 71.7705 4.83478L70.0987 2.56365C68.7662 3.54452 67.7113 4.74448 66.956 6.16067L69.4444 7.48777ZM71.7806 4.82726C72.8015 4.06162 74.0292 3.45575 75.4851 3.02494L74.6849 0.320759C72.9506 0.833959 71.4114 1.579 70.0885 2.57118L71.7806 4.82726ZM75.4813 3.02604C76.947 2.59672 78.5775 2.37489 80.3828 2.37489V-0.445207C78.347 -0.445207 76.4456 -0.195024 74.6886 0.319664L75.4813 3.02604ZM80.3828 2.37489C82.8343 2.37489 84.9034 2.81611 86.6295 3.6504L87.8568 1.11132C85.6766 0.0575862 83.1722 -0.445207 80.3828 -0.445207V2.37489ZM86.6295 3.6504C88.3769 4.49493 89.6841 5.62662 90.6038 7.03403L92.9646 5.49136C91.7358 3.61101 90.0157 2.15481 87.8568 1.11132L86.6295 3.6504ZM90.6092 7.04216C91.5351 8.438 92.0099 10.0426 92.0099 11.9023L94.83 11.9023C94.83 9.53028 94.2142 7.37515 92.9592 5.48323L90.6092 7.04216ZM93.4199 10.4923H86.1445V13.3124H93.4199V10.4923ZM87.5546 11.9023C87.5546 10.6581 87.2905 9.501 86.7143 8.47668L84.2564 9.85926C84.5591 10.3974 84.7345 11.0632 84.7345 11.9023H87.5546ZM86.7309 8.50706C86.1606 7.43216 85.2887 6.61053 84.1813 6.03631L82.8832 8.53986C83.5335 8.8771 83.9638 9.30872 84.2398 9.82888L86.7309 8.50706ZM84.1909 6.04133C83.0666 5.44737 81.7316 5.19444 80.2607 5.19444V8.01454C81.4266 8.01454 82.2726 8.21734 82.8736 8.53484L84.1909 6.04133ZM80.2607 5.19444C78.8569 5.19444 77.5819 5.40898 76.496 5.91016L77.6778 8.4707C78.2846 8.19063 79.1255 8.01454 80.2607 8.01454V5.19444ZM76.5165 5.90089C75.4687 6.36436 74.5992 7.03873 74.0004 7.96005L76.3649 9.49698C76.6124 9.11621 77.0124 8.7652 77.6573 8.47997L76.5165 5.90089ZM74.0094 7.94636C73.4246 8.82361 73.1378 9.81439 73.1378 10.877H75.9579C75.9579 10.3445 76.0943 9.90295 76.3559 9.51067L74.0094 7.94636ZM73.1378 10.877C73.1378 11.7194 73.3461 12.518 73.7782 13.2382L76.1964 11.7872C76.0426 11.5309 75.9579 11.2389 75.9579 10.877H73.1378ZM73.7961 13.2671C74.2278 13.9488 74.8296 14.5317 75.5438 15.0336L77.1652 12.7262C76.675 12.3817 76.3653 12.0532 76.1785 11.7582L73.7961 13.2671ZM75.5438 15.0336C76.2465 15.5274 77.0792 15.9712 78.0236 16.3735L79.1287 13.7789C78.3154 13.4325 77.6669 13.0787 77.1652 12.7262L75.5438 15.0336ZM78.0236 16.3735C78.9565 16.7708 80.0206 17.1529 81.2106 17.5217L82.0453 14.8279C80.9241 14.4805 79.9536 14.1302 79.1287 13.7789L78.0236 16.3735ZM81.2196 17.5244C83.0971 18.0924 84.7208 18.724 86.0999 19.4135L87.3611 16.8912C85.8104 16.1158 84.0325 15.4291 82.0362 14.8252L81.2196 17.5244ZM86.1054 19.4163C87.4928 20.1024 88.6125 20.8533 89.4878 21.6569L91.395 19.5794C90.2846 18.5601 88.9303 17.6672 87.3555 16.8884L86.1054 19.4163ZM89.4878 21.6569C90.3461 22.4448 90.9746 23.3196 91.3952 24.283L93.9798 23.1545C93.3913 21.8067 92.5224 20.6145 91.395 19.5794L89.4878 21.6569ZM91.3952 24.283C91.8106 25.2342 92.0343 26.3476 92.0343 27.6494H94.8544C94.8544 26.0215 94.5735 24.5145 93.9798 23.1545L91.3952 24.283ZM92.0343 27.6494C92.0343 29.0089 91.7707 30.1742 91.2765 31.176L93.8056 32.4236C94.5158 30.984 94.8544 29.3824 94.8544 27.6494H92.0343ZM91.2765 31.176C90.7775 32.1875 90.0556 33.0496 89.0879 33.7685L90.7696 36.0323C92.0805 35.0585 93.1001 33.8536 93.8056 32.4236L91.2765 31.176ZM89.0879 33.7685C88.1073 34.4969 86.9108 35.0706 85.4734 35.4707L86.2297 38.1875C87.9498 37.7087 89.4715 36.9966 90.7696 36.0323L89.0879 33.7685ZM85.4734 35.4707C84.0387 35.8701 82.4027 36.0782 80.5537 36.0782V38.8983C82.611 38.8983 84.5069 38.667 86.2297 38.1875L85.4734 35.4707ZM80.5537 36.0782C78.9193 36.0782 77.308 35.8666 75.7168 35.4422L74.9902 38.1671C76.817 38.6543 78.6725 38.8983 80.5537 38.8983V36.0782ZM75.7289 35.4455C74.1595 35.0121 72.7459 34.3661 71.4789 33.5116L69.902 35.8497C71.4345 36.8832 73.1295 37.6533 74.9781 38.1639L75.7289 35.4455ZM71.4852 33.5159C70.2807 32.694 69.3213 31.6506 68.5969 30.3722L66.1433 31.7626C67.0791 33.4138 68.3332 34.7793 69.8957 35.8454L71.4852 33.5159ZM68.5969 30.3722C67.9078 29.1562 67.535 27.6716 67.535 25.8672H64.715C64.715 28.0666 65.1723 30.0489 66.1433 31.7626L68.5969 30.3722ZM66.125 27.2772H73.4736V24.4571L66.125 24.4571V27.2772ZM72.0636 25.8672C72.0636 27.1116 72.2548 28.2559 72.6989 29.25L75.2737 28.0996C75.0343 27.5638 74.8837 26.8363 74.8837 25.8672H72.0636ZM72.6989 29.25C73.1293 30.2131 73.7512 31.0253 74.5713 31.6512L76.2822 29.4094C75.8653 29.0912 75.527 28.6664 75.2737 28.0996L72.6989 29.25ZM74.5854 31.6618C75.3886 32.259 76.3141 32.6742 77.3369 32.9251L78.0088 30.1862C77.3064 30.0139 76.7345 29.7455 76.2681 29.3988L74.5854 31.6618ZM77.3428 32.9265C78.3447 33.1677 79.4173 33.2831 80.5537 33.2831V30.463C79.6068 30.463 78.7588 30.3668 78.0029 30.1848L77.3428 32.9265ZM80.5537 33.2831C81.9414 33.2831 83.1944 33.0895 84.2466 32.6266L83.1108 30.0453C82.5354 30.2985 81.7051 30.463 80.5537 30.463V33.2831ZM84.2372 32.6307C85.2758 32.1826 86.1382 31.5159 86.7106 30.5857L84.3089 29.1077C84.1001 29.447 83.7418 29.7731 83.1202 30.0412L84.2372 32.6307ZM86.6969 30.6076C87.2579 29.7324 87.5302 28.7492 87.5302 27.6982H84.7101C84.7101 28.2423 84.5754 28.6914 84.3227 29.0857L86.6969 30.6076ZM114.318 1.45313H115.728V0.0430746H114.318V1.45313ZM114.318 37V38.41H115.728V37H114.318ZM107.019 37L105.609 37V38.41L107.019 38.41V37ZM107.019 1.45313V0.0430746H105.609V1.45313H107.019ZM125.256 1.45313H126.666V0.0430746H125.256V1.45313ZM125.256 7.19043V8.60048H126.666V7.19043H125.256ZM96.252 7.19043H94.8419V8.60048H96.252V7.19043ZM96.252 1.45313V0.0430746H94.8419V1.45313H96.252ZM112.908 1.45313V37H115.728V1.45313H112.908ZM114.318 35.59H107.019V38.41H114.318V35.59ZM108.429 37V1.45313H105.609V37L108.429 37ZM107.019 2.86318L114.318 2.86318V0.0430746L107.019 0.0430746V2.86318ZM123.846 1.45313V7.19043H126.666V1.45313H123.846ZM125.256 5.78038L96.252 5.78038V8.60048L125.256 8.60048V5.78038ZM97.662 7.19043V1.45313H94.8419V7.19043H97.662ZM96.252 2.86318L125.256 2.86318V0.0430746L96.252 0.0430746V2.86318ZM137.219 1.45313H138.629V0.0430746H137.219V1.45313ZM137.219 37V38.41H138.629V37H137.219ZM129.919 37H128.509V38.41H129.919V37ZM129.919 1.45313V0.0430746H128.509V1.45313H129.919ZM135.809 1.45313V37H138.629V1.45313H135.809ZM137.219 35.59H129.919V38.41H137.219V35.59ZM131.329 37V1.45313H128.509V37H131.329ZM129.919 2.86318L137.219 2.86318V0.0430746L129.919 0.0430746V2.86318ZM166.931 31.2871H168.341V29.8771H166.931V31.2871ZM166.931 37V38.41H168.341V37H166.931ZM149.035 37H147.625V38.41H149.035V37ZM149.035 31.2871V29.8771H147.625V31.2871H149.035ZM151.403 1.45313H152.813V0.0430746L151.403 0.0430746V1.45313ZM151.403 37V38.41H152.813V37H151.403ZM144.079 37H142.669V38.41H144.079V37ZM144.079 1.45313V0.0430746H142.669V1.45313H144.079ZM165.521 31.2871V37H168.341V31.2871H165.521ZM166.931 35.59L149.035 35.59V38.41L166.931 38.41V35.59ZM150.445 37V31.2871L147.625 31.2871V37L150.445 37ZM149.035 32.6972L166.931 32.6972V29.8771L149.035 29.8771V32.6972ZM149.993 1.45313V37H152.813V1.45313H149.993ZM151.403 35.59L144.079 35.59V38.41L151.403 38.41V35.59ZM145.489 37V1.45313L142.669 1.45313V37H145.489ZM144.079 2.86318L151.403 2.86318V0.0430746L144.079 0.0430746V2.86318ZM193.981 31.2871L195.391 31.2871V29.8771L193.981 29.8771V31.2871ZM193.981 37V38.41L195.391 38.41V37L193.981 37ZM176.086 37H174.676V38.41H176.086V37ZM176.086 31.2871V29.8771H174.676V31.2871H176.086ZM178.454 1.45313H179.864V0.0430746H178.454V1.45313ZM178.454 37V38.41H179.864V37H178.454ZM171.13 37H169.72V38.41H171.13V37ZM171.13 1.45313V0.0430746H169.72V1.45313H171.13ZM192.571 31.2871V37L195.391 37V31.2871L192.571 31.2871ZM193.981 35.59H176.086V38.41H193.981V35.59ZM177.496 37V31.2871H174.676V37H177.496ZM176.086 32.6972H193.981V29.8771H176.086V32.6972ZM177.044 1.45313V37H179.864V1.45313L177.044 1.45313ZM178.454 35.59H171.13V38.41H178.454V35.59ZM172.54 37V1.45313H169.72V37H172.54ZM171.13 2.86318L178.454 2.86318V0.0430746L171.13 0.0430746V2.86318ZM221.569 32.8496L222.622 33.7878L222.627 33.7822L221.569 32.8496ZM216.784 36.292L216.227 34.9965L216.223 34.9983L216.784 36.292ZM204.528 36.292L203.967 37.5857L203.971 37.5874L204.528 36.292ZM199.743 32.8496L198.691 33.7885L198.696 33.7941L199.743 32.8496ZM196.594 27.3564L195.259 27.8114L195.262 27.8205L196.594 27.3564ZM196.594 11.1211L197.927 11.5792L197.928 11.5761L196.594 11.1211ZM199.694 5.62793L198.642 4.68902L198.637 4.69539L199.694 5.62793ZM204.479 2.16113L203.923 0.865674L203.919 0.867472L204.479 2.16113ZM216.735 2.16113L216.174 3.4548L216.179 3.45658L216.735 2.16113ZM221.521 5.62793L220.463 6.56049L220.469 6.56682L221.521 5.62793ZM224.646 11.1211L223.311 11.5761L223.315 11.5883L224.646 11.1211ZM217.858 13.3672L216.487 13.6945L217.858 13.3672ZM213.903 7.55664L213.247 8.80488L213.256 8.80926L213.264 8.81354L213.903 7.55664ZM207.312 7.55664L207.959 8.8091L207.967 8.80488L207.312 7.55664ZM204.895 9.75391L203.73 8.95837L203.726 8.96503L203.721 8.97175L204.895 9.75391ZM203.405 25.0615L202.033 25.3853L202.034 25.3888L203.405 25.0615ZM204.919 28.6992L203.749 29.4858L203.755 29.4948L204.919 28.6992ZM207.36 30.9209L206.704 32.1691L207.36 30.9209ZM213.952 30.9209L214.608 32.1691L213.952 30.9209ZM216.369 28.6992L217.542 29.4814L217.548 29.4724L216.369 28.6992ZM217.858 25.0615L219.23 25.3888L219.231 25.3853L217.858 25.0615ZM224.358 18.3965V20.0811L227.179 20.0811V18.3965L224.358 18.3965ZM224.358 20.0811C224.358 22.6567 224.009 24.9244 223.335 26.9015L226.005 27.8114C226.795 25.4916 227.179 22.909 227.179 20.0811L224.358 20.0811ZM223.335 26.9015C222.655 28.8959 221.709 30.5591 220.512 31.9171L222.627 33.7822C224.099 32.1127 225.22 30.1139 226.005 27.8114L223.335 26.9015ZM220.517 31.9114C219.32 33.2538 217.895 34.2798 216.227 34.9965L217.341 37.5874C219.385 36.7091 221.149 35.4402 222.622 33.7878L220.517 31.9114ZM216.223 34.9983C214.581 35.7103 212.733 36.0782 210.656 36.0782V38.8983C213.072 38.8983 215.309 38.4687 217.345 37.5857L216.223 34.9983ZM210.656 36.0782C208.598 36.0782 206.747 35.7109 205.085 34.9965L203.971 37.5874C206.02 38.4681 208.255 38.8983 210.656 38.8983V36.0782ZM205.089 34.9983C203.436 34.2816 202.007 33.2536 200.79 31.9051L198.696 33.7941C200.181 35.4404 201.942 36.7074 203.967 37.5857L205.089 34.9983ZM200.795 31.9107C199.582 30.5513 198.62 28.887 197.925 26.8924L195.262 27.8205C196.065 30.1228 197.203 32.1206 198.691 33.7885L200.795 31.9107ZM197.928 26.9015C197.254 24.9244 196.905 22.6567 196.905 20.0811H194.085C194.085 22.909 194.468 25.4916 195.259 27.8114L197.928 26.9015ZM196.905 20.0811V18.3965H194.085V20.0811H196.905ZM196.905 18.3965C196.905 15.8032 197.255 13.5372 197.927 11.5792L195.26 10.663C194.468 12.9693 194.085 15.5536 194.085 18.3965H196.905ZM197.928 11.5761C198.608 9.58163 199.555 7.9184 200.752 6.56047L198.637 4.69539C197.165 6.3648 196.044 8.36368 195.259 10.6661L197.928 11.5761ZM200.746 6.56682C201.963 5.20369 203.391 4.17003 205.04 3.45479L203.919 0.867472C201.89 1.74729 200.128 3.02483 198.642 4.68904L200.746 6.56682ZM205.036 3.45658C206.698 2.74219 208.549 2.37489 210.607 2.37489V-0.445207C208.206 -0.445207 205.972 -0.0149779 203.923 0.865681L205.036 3.45658ZM210.607 2.37489C212.684 2.37489 214.532 2.74279 216.174 3.45479L217.296 0.867472C215.26 -0.0155749 213.023 -0.445207 210.607 -0.445207V2.37489ZM216.179 3.45658C217.842 4.17176 219.266 5.20347 220.463 6.56047L222.578 4.69539C221.105 3.02504 219.339 1.74555 217.292 0.865681L216.179 3.45658ZM220.469 6.56682C221.68 7.92391 222.632 9.58501 223.311 11.5761L225.98 10.6661C225.194 8.3603 224.063 6.35929 222.573 4.68904L220.469 6.56682ZM223.315 11.5883C224.002 13.5434 224.358 15.8062 224.358 18.3965L227.179 18.3965C227.179 15.5506 226.787 12.9631 225.976 10.6539L223.315 11.5883ZM219.781 20.0811V18.3477H216.961V20.0811H219.781ZM219.781 18.3477C219.781 16.3786 219.603 14.6045 219.23 13.0399L216.487 13.6945C216.797 14.9944 216.961 16.5406 216.961 18.3477H219.781ZM219.23 13.0399C218.858 11.4797 218.294 10.1071 217.509 8.95837L215.181 10.5494C215.73 11.3538 216.176 12.3901 216.487 13.6945L219.23 13.0399ZM217.509 8.95837C216.721 7.80596 215.734 6.90556 214.542 6.29974L213.264 8.81354C213.993 9.18428 214.633 9.74872 215.181 10.5494L217.509 8.95837ZM214.559 6.3084C213.37 5.68348 212.041 5.38975 210.607 5.38975V8.20986C211.648 8.20986 212.516 8.42069 213.247 8.80488L214.559 6.3084ZM210.607 5.38975C209.174 5.38975 207.845 5.68348 206.656 6.3084L207.967 8.80488C208.699 8.42069 209.567 8.20986 210.607 8.20986V5.38975ZM206.664 6.30421C205.49 6.91139 204.514 7.81126 203.73 8.95837L206.059 10.5494C206.61 9.74343 207.245 9.17846 207.959 8.80907L206.664 6.30421ZM203.721 8.97175C202.958 10.1173 202.405 11.4851 202.034 13.0399L204.777 13.6945C205.089 12.3847 205.529 11.3437 206.068 10.5361L203.721 8.97175ZM202.034 13.0399C201.66 14.6045 201.483 16.3786 201.483 18.3477H204.303C204.303 16.5406 204.467 14.9944 204.777 13.6945L202.034 13.0399ZM201.483 18.3477V20.0811H204.303V18.3477H201.483ZM201.483 20.0811C201.483 22.0353 201.661 23.8076 202.033 25.3853L204.778 24.7377C204.466 23.4183 204.303 21.8703 204.303 20.0811H201.483ZM202.034 25.3888C202.406 26.9485 202.968 28.325 203.749 29.4858L206.089 27.9126C205.535 27.0878 205.088 26.0392 204.777 24.7342L202.034 25.3888ZM203.755 29.4948C204.54 30.6439 205.522 31.548 206.704 32.1691L208.016 29.6727C207.278 29.2847 206.633 28.7077 206.083 27.9037L203.755 29.4948ZM206.704 32.1691C207.894 32.7941 209.223 33.0878 210.656 33.0878V30.2677C209.615 30.2677 208.747 30.0568 208.016 29.6727L206.704 32.1691ZM210.656 33.0878C212.089 33.0878 213.419 32.7941 214.608 32.1691L213.296 29.6727C212.565 30.0568 211.697 30.2677 210.656 30.2677V33.0878ZM214.608 32.1691C215.794 31.546 216.772 30.6376 217.542 29.4814L215.196 27.9171C214.665 28.714 214.031 29.2866 213.296 29.6727L214.608 32.1691ZM217.548 29.4724C218.307 28.3149 218.859 26.9431 219.23 25.3888L216.487 24.7342C216.174 26.0445 215.733 27.0979 215.19 27.926L217.548 29.4724ZM219.231 25.3853C219.603 23.8076 219.781 22.0353 219.781 20.0811H216.961C216.961 21.8703 216.797 23.4183 216.486 24.7377L219.231 25.3853Z" fill="url(#paint0_linear_24_45)"/>
<defs>
<linearGradient id="paint0_linear_24_45" x1="113" y1="-7" x2="113" y2="47" gradientUnits="userSpaceOnUse">
<stop stop-color="#00A99D"/>
<stop offset="1" stop-color="#00A99D" stop-opacity="0"/>
</linearGradient>
</defs>
</svg>
