<svg width="94" height="36" viewBox="0 0 94 36" fill="none" xmlns="http://www.w3.org/2000/svg">
<path d="M13.8965 23.3291H4.83887V17.6162H13.8965C15.2962 17.6162 16.4355 17.3883 17.3145 16.9326C18.1934 16.4606 18.8363 15.8096 19.2432 14.9795C19.6501 14.1494 19.8535 13.2135 19.8535 12.1719C19.8535 11.1139 19.6501 10.1292 19.2432 9.21777C18.8363 8.30632 18.1934 7.57389 17.3145 7.02051C16.4355 6.46712 15.2962 6.19043 13.8965 6.19043L7.37793 6.19043L7.37793 36H0.0537109L0.0537109 0.453125L13.8965 0.453125C16.6797 0.453125 19.0641 0.957682 21.0498 1.9668C23.0518 2.95964 24.5817 4.33496 25.6396 6.09277C26.6976 7.85059 27.2266 9.86068 27.2266 12.123C27.2266 14.418 26.6976 16.4036 25.6396 18.0801C24.5817 19.7565 23.0518 21.0505 21.0498 21.9619C19.0641 22.8734 16.6797 23.3291 13.8965 23.3291ZM46.123 23.3291L37.0654 23.3291V17.6162L46.123 17.6162C47.5228 17.6162 48.6621 17.3883 49.541 16.9326C50.4199 16.4606 51.0628 15.8096 51.4697 14.9795C51.8766 14.1494 52.0801 13.2135 52.0801 12.1719C52.0801 11.1139 51.8766 10.1292 51.4697 9.21777C51.0628 8.30632 50.4199 7.57389 49.541 7.02051C48.6621 6.46712 47.5228 6.19043 46.123 6.19043L39.6045 6.19043V36H32.2803V0.453125L46.123 0.453125C48.9062 0.453125 51.2907 0.957682 53.2764 1.9668C55.2783 2.95964 56.8083 4.33496 57.8662 6.09277C58.9242 7.85059 59.4531 9.86068 59.4531 12.123C59.4531 14.418 58.9242 16.4036 57.8662 18.0801C56.8083 19.7565 55.2783 21.0505 53.2764 21.9619C51.2907 22.8734 48.9062 23.3291 46.123 23.3291ZM71.8311 0.453125V36L64.5068 36V0.453125L71.8311 0.453125ZM93.1201 0.453125L79.0332 18.0068L70.9033 26.7471L69.585 19.8135L75.0781 12.2939L84.1357 0.453125L93.1201 0.453125ZM84.7949 36L74.3213 19.5693L79.7412 15.0283L93.4619 36H84.7949Z" fill="#00A99D" fill-opacity="0.1"/>
<path d="M4.83887 23.3291H3.42882V24.7392H4.83887V23.3291ZM4.83887 17.6162V16.2062H3.42882V17.6162H4.83887ZM17.3145 16.9326L17.9635 18.1844L17.9726 18.1797L17.9816 18.1749L17.3145 16.9326ZM7.37793 6.19043V4.78038H5.96788V6.19043H7.37793ZM7.37793 36V37.41H8.78798V36H7.37793ZM0.0537109 36H-1.35634V37.41H0.0537109V36ZM0.0537109 0.453125V-0.956925H-1.35634V0.453125L0.0537109 0.453125ZM21.0498 1.9668L20.4109 3.2239L20.4233 3.23003L21.0498 1.9668ZM21.0498 21.9619L20.4655 20.6786L20.4616 20.6804L21.0498 21.9619ZM13.8965 21.9191H4.83887V24.7392H13.8965V21.9191ZM6.24892 23.3291V17.6162H3.42882V23.3291H6.24892ZM4.83887 19.0263H13.8965V16.2062H4.83887V19.0263ZM13.8965 19.0263C15.4344 19.0263 16.8185 18.7781 17.9635 18.1844L16.6654 15.6808C16.0526 15.9986 15.1581 16.2062 13.8965 16.2062V19.0263ZM17.9816 18.1749C19.0985 17.575 19.9622 16.7162 20.5093 15.6001L17.9771 14.3588C17.7104 14.9029 17.2882 15.3462 16.6473 15.6904L17.9816 18.1749ZM20.5093 15.6001C21.0223 14.5536 21.2636 13.4012 21.2636 12.1719H18.4435C18.4435 13.0259 18.2779 13.7452 17.9771 14.3588L20.5093 15.6001ZM21.2636 12.1719C21.2636 10.9279 21.0232 9.74601 20.5307 8.64297L17.9556 9.79258C18.277 10.5125 18.4435 11.2999 18.4435 12.1719H21.2636ZM20.5307 8.64297C20.0054 7.46617 19.1705 6.52287 18.0657 5.82728L16.5632 8.21374C17.2162 8.62491 17.6671 9.14646 17.9556 9.79258L20.5307 8.64297ZM18.0657 5.82728C16.8964 5.09101 15.4723 4.78038 13.8965 4.78038V7.60048C15.1201 7.60048 15.9747 7.84324 16.5632 8.21374L18.0657 5.82728ZM13.8965 4.78038L7.37793 4.78038V7.60048L13.8965 7.60048V4.78038ZM5.96788 6.19043L5.96788 36H8.78798L8.78798 6.19043H5.96788ZM7.37793 34.59H0.0537109V37.41H7.37793V34.59ZM1.46376 36L1.46376 0.453125L-1.35634 0.453125L-1.35634 36H1.46376ZM0.0537109 1.86318L13.8965 1.86318V-0.956925L0.0537109 -0.956925V1.86318ZM13.8965 1.86318C16.5119 1.86318 18.6665 2.33728 20.411 3.22384L21.6886 0.709758C19.4618 -0.421915 16.8475 -0.956925 13.8965 -0.956925V1.86318ZM20.4233 3.23003C22.2066 4.11441 23.5247 5.3131 24.4315 6.81988L26.8478 5.36566C25.6387 3.35682 23.8969 1.80486 21.6763 0.703562L20.4233 3.23003ZM24.4315 6.81988C25.344 8.33605 25.8165 10.0898 25.8165 12.123H28.6366C28.6366 9.63158 28.0511 7.36512 26.8478 5.36566L24.4315 6.81988ZM25.8165 12.123C25.8165 14.1945 25.3417 15.9101 24.4472 17.3276L26.8321 18.8326C28.0535 16.8972 28.6366 14.6415 28.6366 12.123H25.8165ZM24.4472 17.3276C23.5518 18.7465 22.2458 19.8681 20.4655 20.6786L21.6341 23.2452C23.8577 22.2328 25.6117 20.7665 26.8321 18.8326L24.4472 17.3276ZM20.4616 20.6804C18.7037 21.4873 16.5303 21.9191 13.8965 21.9191V24.7392C16.829 24.7392 19.4246 24.2594 21.638 23.2434L20.4616 20.6804ZM37.0654 23.3291H35.6554V24.7392H37.0654V23.3291ZM37.0654 17.6162V16.2062H35.6554V17.6162H37.0654ZM49.541 16.9326L50.1901 18.1844L50.1992 18.1797L50.2081 18.1749L49.541 16.9326ZM39.6045 6.19043V4.78038H38.1944V6.19043H39.6045ZM39.6045 36L39.6045 37.41H41.0145L41.0145 36H39.6045ZM32.2803 36H30.8702L30.8702 37.41H32.2803L32.2803 36ZM32.2803 0.453125V-0.956925H30.8702V0.453125L32.2803 0.453125ZM53.2764 1.9668L52.6375 3.2239L52.6499 3.23003L53.2764 1.9668ZM53.2764 21.9619L52.6921 20.6786L52.6881 20.6804L53.2764 21.9619ZM46.123 21.9191L37.0654 21.9191V24.7392H46.123V21.9191ZM38.4755 23.3291V17.6162L35.6554 17.6162V23.3291L38.4755 23.3291ZM37.0654 19.0263L46.123 19.0263V16.2062L37.0654 16.2062V19.0263ZM46.123 19.0263C47.6609 19.0263 49.045 18.7781 50.1901 18.1844L48.8919 15.6808C48.2792 15.9986 47.3846 16.2062 46.123 16.2062V19.0263ZM50.2081 18.1749C51.3251 17.575 52.1887 16.7162 52.7358 15.6001L50.2036 14.3588C49.9369 14.9029 49.5148 15.3462 48.8739 15.6904L50.2081 18.1749ZM52.7358 15.6001C53.2488 14.5536 53.4901 13.4012 53.4901 12.1719H50.67C50.67 13.0259 50.5044 13.7452 50.2036 14.3588L52.7358 15.6001ZM53.4901 12.1719C53.4901 10.9279 53.2497 9.74601 52.7573 8.64297L50.1822 9.79258C50.5035 10.5125 50.67 11.2999 50.67 12.1719H53.4901ZM52.7573 8.64297C52.2319 7.46617 51.3971 6.52287 50.2923 5.82728L48.7897 8.21374C49.4428 8.62491 49.8937 9.14646 50.1822 9.79258L52.7573 8.64297ZM50.2923 5.82728C49.1229 5.09101 47.6989 4.78038 46.123 4.78038V7.60048C47.3467 7.60048 48.2013 7.84324 48.7897 8.21374L50.2923 5.82728ZM46.123 4.78038L39.6045 4.78038V7.60048L46.123 7.60048V4.78038ZM38.1944 6.19043V36H41.0145V6.19043H38.1944ZM39.6045 34.59H32.2803L32.2803 37.41H39.6045L39.6045 34.59ZM33.6903 36V0.453125L30.8702 0.453125V36H33.6903ZM32.2803 1.86318L46.123 1.86318V-0.956925L32.2803 -0.956925V1.86318ZM46.123 1.86318C48.7384 1.86318 50.893 2.33728 52.6375 3.22384L53.9152 0.709758C51.6883 -0.421915 49.0741 -0.956925 46.123 -0.956925V1.86318ZM52.6499 3.23003C54.4331 4.11441 55.7512 5.3131 56.6581 6.81988L59.0743 5.36566C57.8653 3.35682 56.1235 1.80486 53.9028 0.703562L52.6499 3.23003ZM56.6581 6.81988C57.5706 8.33605 58.0431 10.0898 58.0431 12.123L60.8632 12.123C60.8632 9.63158 60.2777 7.36512 59.0743 5.36566L56.6581 6.81988ZM58.0431 12.123C58.0431 14.1945 57.5683 15.9101 56.6738 17.3276L59.0587 18.8326C60.28 16.8972 60.8632 14.6415 60.8632 12.123L58.0431 12.123ZM56.6738 17.3276C55.7783 18.7465 54.4724 19.8681 52.6921 20.6786L53.8606 23.2452C56.0843 22.2328 57.8382 20.7665 59.0587 18.8326L56.6738 17.3276ZM52.6881 20.6804C50.9302 21.4873 48.7569 21.9191 46.123 21.9191V24.7392C49.0556 24.7392 51.6511 24.2594 53.8646 23.2434L52.6881 20.6804ZM71.8311 0.453125H73.2411V-0.956925L71.8311 -0.956925V0.453125ZM71.8311 36L71.8311 37.41H73.2411L73.2411 36H71.8311ZM64.5068 36H63.0968L63.0968 37.41H64.5068L64.5068 36ZM64.5068 0.453125V-0.956925H63.0968V0.453125H64.5068ZM93.1201 0.453125L94.2198 1.33565L96.0596 -0.956925L93.1201 -0.956925V0.453125ZM79.0332 18.0068L80.0657 18.9672L80.1007 18.9295L80.1329 18.8894L79.0332 18.0068ZM70.9033 26.7471L69.5181 27.0105L70.0385 29.7472L71.9358 27.7074L70.9033 26.7471ZM69.585 19.8135L68.4464 18.9817L68.0854 19.4758L68.1997 20.0769L69.585 19.8135ZM75.0781 12.2939L73.9582 11.4372L73.9487 11.4496L73.9395 11.4622L75.0781 12.2939ZM84.1357 0.453125V-0.956925H83.4391L83.0158 -0.403582L84.1357 0.453125ZM84.7949 36L83.6059 36.7579L84.0216 37.41H84.7949L84.7949 36ZM74.3213 19.5693L73.4157 18.4885L72.4669 19.2835L73.1323 20.3273L74.3213 19.5693ZM79.7412 15.0283L80.9212 14.2563L80.0522 12.9282L78.8356 13.9475L79.7412 15.0283ZM93.4619 36V37.41H96.0695L94.6419 35.228L93.4619 36ZM70.421 0.453125V36L73.2411 36V0.453125H70.421ZM71.8311 34.59L64.5068 34.59L64.5068 37.41L71.8311 37.41L71.8311 34.59ZM65.9169 36V0.453125L63.0968 0.453125V36H65.9169ZM64.5068 1.86318L71.8311 1.86318V-0.956925L64.5068 -0.956925V1.86318ZM92.0204 -0.429404L77.9335 17.1243L80.1329 18.8894L94.2198 1.33565L92.0204 -0.429404ZM78.0007 17.0465L69.8709 25.7867L71.9358 27.7074L80.0657 18.9672L78.0007 17.0465ZM72.2886 26.4837L70.9702 19.5501L68.1997 20.0769L69.5181 27.0105L72.2886 26.4837ZM70.7236 20.6452L76.2167 13.1257L73.9395 11.4622L68.4464 18.9817L70.7236 20.6452ZM76.1981 13.1507L85.2557 1.30983L83.0158 -0.403582L73.9582 11.4372L76.1981 13.1507ZM84.1357 1.86318L93.1201 1.86318V-0.956925L84.1357 -0.956925V1.86318ZM85.9839 35.2421L75.5103 18.8114L73.1323 20.3273L83.6059 36.7579L85.9839 35.2421ZM75.2269 20.6502L80.6468 16.1092L78.8356 13.9475L73.4157 18.4885L75.2269 20.6502ZM78.5613 15.8003L92.282 36.772L94.6419 35.228L80.9212 14.2563L78.5613 15.8003ZM93.4619 34.59H84.7949L84.7949 37.41H93.4619V34.59Z" fill="url(#paint0_linear_41_20)"/>
<defs>
<linearGradient id="paint0_linear_41_20" x1="45" y1="-8" x2="45" y2="46" gradientUnits="userSpaceOnUse">
<stop stop-color="#00A99D"/>
<stop offset="1" stop-color="#00A99D" stop-opacity="0"/>
</linearGradient>
</defs>
</svg>
