<svg width="242" height="38" viewBox="0 0 242 38" fill="none" xmlns="http://www.w3.org/2000/svg">
<path d="M16.4834 29.5781L24.8574 1.45313L33.0117 1.45313L20.6338 37H15.2627L16.4834 29.5781ZM8.76855 1.45313L17.1182 29.5781L18.3877 37H12.9678L0.663086 1.45313L8.76855 1.45313ZM44.1201 1.45313V37H36.8203V1.45313L44.1201 1.45313ZM76.6885 31.2871V37H51.4932V31.2871H76.6885ZM76.3223 5.53027L54.7402 37H49.5889V32.8008L71.3418 1.45313L76.3223 1.45313V5.53027ZM73.8076 1.45313V7.19043L49.6133 7.19043V1.45313L73.8076 1.45313ZM101.322 25.208H108.622C108.476 27.6006 107.816 29.7246 106.645 31.5801C105.489 33.4355 103.869 34.8841 101.786 35.9258C99.7191 36.9674 97.2288 37.4883 94.3154 37.4883C92.0368 37.4883 89.9941 37.0977 88.1875 36.3164C86.3809 35.5189 84.8346 34.3796 83.5488 32.8984C82.2793 31.4173 81.3109 29.627 80.6436 27.5273C79.9762 25.4277 79.6426 23.0758 79.6426 20.4717V18.0059C79.6426 15.4017 79.9844 13.0498 80.668 10.9502C81.3678 8.83431 82.3607 7.03581 83.6465 5.55469C84.9486 4.07357 86.5029 2.93424 88.3096 2.13672C90.1162 1.33919 92.1344 0.94043 94.3643 0.94043C97.3265 0.94043 99.8249 1.47754 101.859 2.55176C103.91 3.62598 105.497 5.1071 106.62 6.99512C107.759 8.88314 108.443 11.0316 108.671 13.4404H101.347C101.265 12.0081 100.98 10.7956 100.492 9.80273C100.004 8.79362 99.2633 8.03678 98.2705 7.53223C97.2939 7.01139 95.9919 6.75098 94.3643 6.75098C93.1436 6.75098 92.0775 6.97884 91.166 7.43457C90.2546 7.8903 89.4896 8.58203 88.8711 9.50977C88.2526 10.4375 87.7887 11.6094 87.4795 13.0254C87.1865 14.4251 87.04 16.069 87.04 17.957V20.4717C87.04 22.3109 87.1784 23.9303 87.4551 25.3301C87.7318 26.7135 88.1549 27.8854 88.7246 28.8457C89.3105 29.7897 90.0592 30.5059 90.9707 30.9941C91.8984 31.4661 93.0133 31.7021 94.3154 31.7021C95.8454 31.7021 97.1068 31.458 98.0996 30.9697C99.0924 30.4814 99.8493 29.7572 100.37 28.7969C100.907 27.8366 101.225 26.6403 101.322 25.208ZM127.885 7.53223L118.217 37H110.429L123.637 1.45313L128.593 1.45313L127.885 7.53223ZM135.917 37L126.225 7.53223L125.443 1.45313L130.448 1.45313L143.729 37H135.917ZM135.478 23.7676V29.5049L116.703 29.5049V23.7676L135.478 23.7676ZM147.025 1.45313L160.282 1.45313C163 1.45313 165.336 1.86003 167.289 2.67383C169.258 3.48763 170.772 4.69206 171.83 6.28711C172.888 7.88216 173.417 9.84342 173.417 12.1709C173.417 14.0752 173.091 15.7109 172.44 17.0781C171.806 18.429 170.902 19.5602 169.73 20.4717C168.575 21.3669 167.216 22.083 165.653 22.6201L163.334 23.8408L151.811 23.8408L151.762 18.1279L160.331 18.1279C161.617 18.1279 162.683 17.9001 163.529 17.4443C164.376 16.9886 165.01 16.3538 165.434 15.54C165.873 14.7262 166.093 13.7822 166.093 12.708C166.093 11.5687 165.881 10.584 165.458 9.75391C165.035 8.92383 164.392 8.28906 163.529 7.84961C162.667 7.41016 161.584 7.19043 160.282 7.19043H154.35V37H147.025V1.45313ZM166.898 37L158.793 21.1553L166.532 21.1064L174.735 36.6582V37H166.898ZM179.057 1.45313L192.313 1.45313C195.032 1.45313 197.367 1.86003 199.32 2.67383C201.29 3.48763 202.803 4.69206 203.861 6.28711C204.919 7.88216 205.448 9.84342 205.448 12.1709C205.448 14.0752 205.123 15.7109 204.472 17.0781C203.837 18.429 202.934 19.5602 201.762 20.4717C200.606 21.3669 199.247 22.083 197.685 22.6201L195.365 23.8408H183.842L183.793 18.1279H192.362C193.648 18.1279 194.714 17.9001 195.561 17.4443C196.407 16.9886 197.042 16.3538 197.465 15.54C197.904 14.7262 198.124 13.7822 198.124 12.708C198.124 11.5687 197.912 10.584 197.489 9.75391C197.066 8.92383 196.423 8.28906 195.561 7.84961C194.698 7.41016 193.616 7.19043 192.313 7.19043H186.381V37H179.057V1.45313ZM198.93 37L190.824 21.1553L198.563 21.1064L206.767 36.6582V37H198.93ZM225.541 7.53223L215.873 37L208.085 37L221.293 1.45313H226.249L225.541 7.53223ZM233.573 37L223.881 7.53223L223.1 1.45313L228.104 1.45313L241.386 37H233.573ZM233.134 23.7676V29.5049H214.359V23.7676L233.134 23.7676Z" fill="#00A99D" fill-opacity="0.1"/>
<path d="M16.4834 29.5781L15.132 29.1758L15.1065 29.2613L15.092 29.3493L16.4834 29.5781ZM24.8574 1.45313V0.0430746H23.806L23.506 1.05075L24.8574 1.45313ZM33.0117 1.45313L34.3433 1.91682L34.9958 0.0430746H33.0117V1.45313ZM20.6338 37V38.41H21.6359L21.9654 37.4637L20.6338 37ZM15.2627 37L13.8713 36.7712L13.6018 38.41H15.2627V37ZM8.76855 1.45313L10.1203 1.05183L9.82082 0.0430746H8.76855V1.45313ZM17.1182 29.5781L18.508 29.3404L18.4938 29.2575L18.4699 29.1768L17.1182 29.5781ZM18.3877 37V38.41H20.0594L19.7776 36.7623L18.3877 37ZM12.9678 37L11.6353 37.4612L11.9637 38.41H12.9678V37ZM0.663086 1.45313V0.0430746H-1.31715L-0.669392 1.91437L0.663086 1.45313ZM17.8348 29.9805L26.2088 1.8555L23.506 1.05075L15.132 29.1758L17.8348 29.9805ZM24.8574 2.86318L33.0117 2.86318V0.0430746L24.8574 0.0430746V2.86318ZM31.6801 0.989433L19.3022 36.5363L21.9654 37.4637L34.3433 1.91682L31.6801 0.989433ZM20.6338 35.59H15.2627V38.41H20.6338V35.59ZM16.6541 37.2288L17.8748 29.807L15.092 29.3493L13.8713 36.7712L16.6541 37.2288ZM7.41681 1.85442L15.7664 29.9794L18.4699 29.1768L10.1203 1.05183L7.41681 1.85442ZM15.7283 29.8159L16.9978 37.2377L19.7776 36.7623L18.508 29.3404L15.7283 29.8159ZM18.3877 35.59H12.9678V38.41H18.3877V35.59ZM14.3003 36.5388L1.99556 0.991883L-0.669392 1.91437L11.6353 37.4612L14.3003 36.5388ZM0.663086 2.86318L8.76855 2.86318V0.0430746L0.663086 0.0430746V2.86318ZM44.1201 1.45313H45.5302V0.0430746H44.1201V1.45313ZM44.1201 37L44.1201 38.41H45.5302L45.5302 37H44.1201ZM36.8203 37H35.4103L35.4103 38.41H36.8203L36.8203 37ZM36.8203 1.45313V0.0430746L35.4103 0.0430746V1.45313H36.8203ZM42.7101 1.45313V37H45.5302V1.45313H42.7101ZM44.1201 35.59H36.8203L36.8203 38.41H44.1201L44.1201 35.59ZM38.2304 37V1.45313H35.4103V37H38.2304ZM36.8203 2.86318L44.1201 2.86318V0.0430746L36.8203 0.0430746V2.86318ZM76.6885 31.2871L78.0985 31.2871V29.8771L76.6885 29.8771V31.2871ZM76.6885 37L76.6885 38.41L78.0985 38.41L78.0985 37L76.6885 37ZM51.4932 37H50.0831L50.0831 38.41H51.4932L51.4932 37ZM51.4932 31.2871V29.8771H50.0831V31.2871H51.4932ZM76.3223 5.53027L77.4851 6.32777L77.7323 5.96733V5.53027H76.3223ZM54.7402 37L54.7402 38.41H55.483L55.9031 37.7975L54.7402 37ZM49.5889 37H48.1788L48.1788 38.41H49.5889L49.5889 37ZM49.5889 32.8008L48.4304 31.9969L48.1788 32.3595V32.8008H49.5889ZM71.3418 1.45313V0.0430746H70.604L70.1833 0.649244L71.3418 1.45313ZM76.3223 1.45313H77.7323V0.0430746H76.3223V1.45313ZM73.8076 1.45313H75.2177V0.0430746L73.8076 0.0430746V1.45313ZM73.8076 7.19043V8.60048H75.2177V7.19043H73.8076ZM49.6133 7.19043H48.2032V8.60048H49.6133V7.19043ZM49.6133 1.45313V0.0430746H48.2032V1.45313H49.6133ZM75.2784 31.2871V37L78.0985 37V31.2871L75.2784 31.2871ZM76.6885 35.59H51.4932L51.4932 38.41H76.6885L76.6885 35.59ZM52.9032 37V31.2871H50.0831V37H52.9032ZM51.4932 32.6972H76.6885V29.8771H51.4932V32.6972ZM75.1594 4.73278L53.5774 36.2025L55.9031 37.7975L77.4851 6.32777L75.1594 4.73278ZM54.7402 35.59H49.5889L49.5889 38.41H54.7402L54.7402 35.59ZM50.9989 37V32.8008H48.1788V37H50.9989ZM50.7473 33.6047L72.5003 2.25701L70.1833 0.649244L48.4304 31.9969L50.7473 33.6047ZM71.3418 2.86318L76.3223 2.86318V0.0430746L71.3418 0.0430746V2.86318ZM74.9122 1.45313V5.53027H77.7323V1.45313H74.9122ZM72.3976 1.45313V7.19043H75.2177V1.45313H72.3976ZM73.8076 5.78038L49.6133 5.78038V8.60048L73.8076 8.60048V5.78038ZM51.0233 7.19043V1.45313L48.2032 1.45313V7.19043L51.0233 7.19043ZM49.6133 2.86318L73.8076 2.86318V0.0430746L49.6133 0.0430746V2.86318ZM101.322 25.208V23.798H100.005L99.9155 25.1121L101.322 25.208ZM108.622 25.208L110.029 25.2942L110.121 23.798H108.622V25.208ZM106.645 31.5801L105.452 30.8271L105.448 30.8346L106.645 31.5801ZM101.786 35.9258L101.156 34.6646L101.152 34.6666L101.786 35.9258ZM88.1875 36.3164L87.618 37.6064L87.6278 37.6106L88.1875 36.3164ZM83.5488 32.8984L82.4782 33.8161L82.484 33.8228L83.5488 32.8984ZM80.6436 27.5273L79.2997 27.9544L80.6436 27.5273ZM80.668 10.9502L79.3292 10.5074L79.3272 10.5137L80.668 10.9502ZM83.6465 5.55469L82.5875 4.62368L82.5817 4.63031L83.6465 5.55469ZM101.859 2.55176L101.201 3.79868L101.205 3.80083L101.859 2.55176ZM106.62 6.99512L105.408 7.71598L105.413 7.72364L106.62 6.99512ZM108.671 13.4404V14.8505H110.221L110.075 13.3076L108.671 13.4404ZM101.347 13.4404L99.9389 13.5204L100.014 14.8505H101.347V13.4404ZM100.492 9.80273L99.2229 10.4169L99.2269 10.425L100.492 9.80273ZM98.2705 7.53223L97.6069 8.77639L97.6193 8.78295L97.6317 8.78927L98.2705 7.53223ZM87.4795 13.0254L86.1019 12.7245L86.0993 12.7365L87.4795 13.0254ZM87.4551 25.3301L86.0718 25.6035L86.0724 25.6066L87.4551 25.3301ZM88.7246 28.8457L87.5119 29.5651L87.5191 29.5773L87.5266 29.5893L88.7246 28.8457ZM90.9707 30.9941L90.3048 32.2371L90.318 32.2441L90.3313 32.2509L90.9707 30.9941ZM100.37 28.7969L99.1395 28.1086L99.135 28.1166L99.1306 28.1246L100.37 28.7969ZM101.322 26.6181H108.622V23.798H101.322V26.6181ZM107.215 25.1218C107.081 27.3 106.486 29.1904 105.452 30.8271L107.837 32.333C109.147 30.2588 109.87 27.9012 110.029 25.2942L107.215 25.1218ZM105.448 30.8346C104.439 32.4546 103.022 33.7313 101.156 34.6646L102.417 37.187C104.717 36.0369 106.539 34.4165 107.841 32.3255L105.448 30.8346ZM101.152 34.6666C99.3256 35.5868 97.064 36.0782 94.3154 36.0782L94.3154 38.8983C97.3936 38.8983 100.113 38.3481 102.421 37.185L101.152 34.6666ZM94.3154 36.0782C92.1992 36.0782 90.3514 35.7159 88.7472 35.0222L87.6278 37.6106C89.6368 38.4794 91.8744 38.8983 94.3154 38.8983L94.3154 36.0782ZM88.7569 35.0265C87.139 34.3122 85.7623 33.2972 84.6136 31.9741L82.484 33.8228C83.907 35.4619 85.6227 36.7255 87.6181 37.6064L88.7569 35.0265ZM84.6194 31.9808C83.4879 30.6606 82.6048 29.0429 81.9874 27.1002L79.2997 27.9544C80.0169 30.211 81.0707 32.174 82.4782 33.8161L84.6194 31.9808ZM81.9874 27.1002C81.3711 25.1612 81.0526 22.9566 81.0526 20.4717H78.2325C78.2325 23.1951 78.5814 25.6942 79.2997 27.9544L81.9874 27.1002ZM81.0526 20.4717V18.0059H78.2325V20.4717H81.0526ZM81.0526 18.0059C81.0526 15.5241 81.3784 13.3227 82.0087 11.3867L79.3272 10.5137C78.5903 12.7769 78.2325 15.2793 78.2325 18.0059H81.0526ZM82.0067 11.393C82.6559 9.43017 83.5633 7.80144 84.7113 6.47906L82.5817 4.63031C81.1581 6.27017 80.0798 8.23845 79.3293 10.5074L82.0067 11.393ZM84.7055 6.48568C85.8722 5.15856 87.2594 4.14163 88.879 3.42667L87.7401 0.846765C85.7464 1.72686 84.0249 2.98857 82.5875 4.62369L84.7055 6.48568ZM88.879 3.42667C90.4845 2.71796 92.3052 2.35048 94.3643 2.35048V-0.469621C91.9637 -0.469621 89.748 -0.039577 87.7401 0.846765L88.879 3.42667ZM94.3643 2.35048C97.1611 2.35048 99.4194 2.85798 101.201 3.79867L102.518 1.30484C100.23 0.0971017 97.4919 -0.469621 94.3643 -0.469621V2.35048ZM101.205 3.80083C103.038 4.76078 104.426 6.06452 105.408 7.71597L107.832 6.27427C106.568 4.14967 104.783 2.49118 102.514 1.30269L101.205 3.80083ZM105.413 7.72364C106.432 9.4133 107.057 11.3544 107.267 13.5732L110.075 13.3076C109.829 10.7088 109.086 8.35298 107.827 6.26659L105.413 7.72364ZM108.671 12.0304H101.347V14.8505H108.671V12.0304ZM102.754 13.3604C102.665 11.7931 102.35 10.3849 101.757 9.18045L99.2269 10.425C99.6111 11.2063 99.8652 12.2232 99.9389 13.5204L102.754 13.3604ZM101.761 9.18857C101.14 7.90401 100.179 6.92037 98.9093 6.27519L97.6317 8.78927C98.3478 9.1532 98.8679 9.68324 99.2229 10.4169L101.761 9.18857ZM98.9341 6.28806C97.6797 5.61907 96.1224 5.34093 94.3643 5.34093V8.16103C95.8614 8.16103 96.9082 8.40372 97.6069 8.77639L98.9341 6.28806ZM94.3643 5.34093C92.9676 5.34093 91.6777 5.60223 90.5354 6.17338L91.7966 8.69576C92.4772 8.35546 93.3196 8.16103 94.3643 8.16103V5.34093ZM90.5354 6.17338C89.3842 6.74901 88.4393 7.61546 87.6979 8.72761L90.0443 10.2919C90.5399 9.5486 91.1249 9.03159 91.7966 8.69576L90.5354 6.17338ZM87.6979 8.72761C86.9574 9.83824 86.438 11.1857 86.1019 12.7245L88.8571 13.3262C89.1395 12.033 89.5478 11.0368 90.0443 10.2919L87.6979 8.72761ZM86.0993 12.7365C85.7813 14.2559 85.63 16.0008 85.63 17.957H88.4501C88.4501 16.1372 88.5917 14.5944 88.8596 13.3143L86.0993 12.7365ZM85.63 17.957V20.4717H88.4501V17.957H85.63ZM85.63 20.4717C85.63 22.3779 85.7731 24.0923 86.0718 25.6035L88.8384 25.0566C88.5837 23.7684 88.4501 22.2439 88.4501 20.4717H85.63ZM86.0724 25.6066C86.3725 27.1069 86.8428 28.4372 87.5119 29.5651L89.9373 28.1263C89.4671 27.3337 89.0911 26.3202 88.8377 25.0535L86.0724 25.6066ZM87.5266 29.5893C88.233 30.7274 89.159 31.6232 90.3048 32.2371L91.6366 29.7512C90.9594 29.3885 90.3881 28.8521 89.9226 28.1021L87.5266 29.5893ZM90.3313 32.2509C91.5006 32.8458 92.8456 33.1122 94.3154 33.1122V30.2921C93.181 30.2921 92.2963 30.0865 91.6101 29.7374L90.3313 32.2509ZM94.3154 33.1122C95.9833 33.1122 97.476 32.8478 98.7219 32.235L97.4773 29.7044C96.7376 30.0682 95.7075 30.2921 94.3154 30.2921V33.1122ZM98.7219 32.235C99.9733 31.6196 100.948 30.6898 101.61 29.4691L99.1306 28.1246C98.751 28.8245 98.2115 29.3433 97.4773 29.7044L98.7219 32.235ZM101.601 29.4852C102.266 28.2963 102.621 26.8834 102.729 25.3039L99.9155 25.1121C99.8279 26.3972 99.5487 27.3769 99.1395 28.1086L101.601 29.4852ZM127.885 7.53223L129.225 7.97179L129.269 7.83664L129.285 7.69535L127.885 7.53223ZM118.217 37V38.41H119.238L119.557 37.4396L118.217 37ZM110.429 37L109.107 36.5089L108.401 38.41H110.429V37ZM123.637 1.45313V0.0430746H122.656L122.315 0.962005L123.637 1.45313ZM128.593 1.45313L129.993 1.61625L130.177 0.0430746L128.593 0.0430746V1.45313ZM135.917 37L134.578 37.4406L134.896 38.41H135.917V37ZM126.225 7.53223L124.826 7.71196L124.843 7.84519L124.885 7.97279L126.225 7.53223ZM125.443 1.45313V0.0430746L123.84 0.0430746L124.045 1.63286L125.443 1.45313ZM130.448 1.45313L131.769 0.959614L131.427 0.0430746H130.448V1.45313ZM143.729 37V38.41H145.762L145.05 36.5065L143.729 37ZM135.478 23.7676H136.888V22.3575H135.478V23.7676ZM135.478 29.5049V30.9149H136.888V29.5049H135.478ZM116.703 29.5049H115.293V30.9149H116.703V29.5049ZM116.703 23.7676V22.3575H115.293V23.7676H116.703ZM126.545 7.09266L116.877 36.5604L119.557 37.4396L129.225 7.97179L126.545 7.09266ZM118.217 35.59H110.429V38.41H118.217V35.59ZM111.75 37.4911L124.958 1.94425L122.315 0.962005L109.107 36.5089L111.75 37.4911ZM123.637 2.86318L128.593 2.86318V0.0430746L123.637 0.0430746V2.86318ZM127.192 1.29L126.484 7.36911L129.285 7.69535L129.993 1.61625L127.192 1.29ZM137.256 36.5594L127.564 7.09166L124.885 7.97279L134.578 37.4406L137.256 36.5594ZM127.623 7.35249L126.842 1.27339L124.045 1.63286L124.826 7.71196L127.623 7.35249ZM125.443 2.86318L130.448 2.86318V0.0430746L125.443 0.0430746V2.86318ZM129.127 1.94664L142.409 37.4935L145.05 36.5065L131.769 0.959614L129.127 1.94664ZM143.729 35.59H135.917V38.41H143.729V35.59ZM134.067 23.7676V29.5049H136.888V23.7676H134.067ZM135.478 28.0948L116.703 28.0948V30.9149L135.478 30.9149V28.0948ZM118.113 29.5049V23.7676H115.293V29.5049H118.113ZM116.703 25.1776L135.478 25.1776V22.3575L116.703 22.3575V25.1776ZM147.025 1.45313V0.0430746L145.615 0.0430746V1.45313H147.025ZM167.289 2.67383L166.747 3.97542L166.751 3.977L167.289 2.67383ZM171.83 6.28711L173.005 5.50772L171.83 6.28711ZM172.44 17.0781L171.167 16.4719L171.164 16.4785L172.44 17.0781ZM169.73 20.4717L170.594 21.5864L170.596 21.5847L169.73 20.4717ZM165.653 22.6201L165.195 21.2867L165.092 21.3219L164.997 21.3723L165.653 22.6201ZM163.334 23.8408V25.2509H163.682L163.991 25.0886L163.334 23.8408ZM151.811 23.8408L150.401 23.8529L150.412 25.2509H151.811V23.8408ZM151.762 18.1279V16.7179H150.34L150.352 18.14L151.762 18.1279ZM165.434 15.54L164.193 14.8701L164.188 14.8797L164.183 14.8895L165.434 15.54ZM154.35 7.19043V5.78038H152.94V7.19043H154.35ZM154.35 37V38.41H155.76V37H154.35ZM147.025 37H145.615V38.41H147.025V37ZM166.898 37L165.643 37.6422L166.036 38.41H166.898V37ZM158.793 21.1553L158.784 19.7453L156.495 19.7597L157.538 21.7974L158.793 21.1553ZM166.532 21.1064L167.779 20.4486L167.38 19.691L166.523 19.6964L166.532 21.1064ZM174.735 36.6582H176.145V36.3091L175.983 36.0003L174.735 36.6582ZM174.735 37V38.41H176.145V37H174.735ZM147.025 2.86318L160.282 2.86318V0.0430746L147.025 0.0430746V2.86318ZM160.282 2.86318C162.865 2.86318 165.007 3.25044 166.747 3.97541L167.831 1.37224C165.665 0.469616 163.136 0.0430746 160.282 0.0430746V2.86318ZM166.751 3.977C168.491 4.69615 169.77 5.73168 170.655 7.06649L173.005 5.50772C171.775 3.65243 170.026 2.27911 167.828 1.37066L166.751 3.977ZM170.655 7.06649C171.529 8.38477 172.007 10.0602 172.007 12.1709H174.827C174.827 9.62667 174.247 7.37955 173.005 5.50772L170.655 7.06649ZM172.007 12.1709C172.007 13.9179 171.708 15.3364 171.167 16.4719L173.714 17.6844C174.475 16.0855 174.827 14.2324 174.827 12.1709H172.007ZM171.164 16.4785C170.623 17.6294 169.86 18.5844 168.865 19.3587L170.596 21.5847C171.944 20.5361 172.988 19.2286 173.717 17.6778L171.164 16.4785ZM168.867 19.357C167.848 20.1461 166.63 20.7933 165.195 21.2867L166.112 23.9536C167.802 23.3727 169.301 22.5876 170.594 21.5864L168.867 19.357ZM164.997 21.3723L162.677 22.593L163.991 25.0886L166.31 23.8679L164.997 21.3723ZM163.334 22.4308L151.811 22.4308V25.2509H163.334V22.4308ZM153.221 23.8288L153.172 18.1159L150.352 18.14L150.401 23.8529L153.221 23.8288ZM151.762 19.538L160.331 19.538V16.7179L151.762 16.7179V19.538ZM160.331 19.538C161.775 19.538 163.088 19.2832 164.198 18.6858L162.861 16.2028C162.278 16.5169 161.459 16.7179 160.331 16.7179V19.538ZM164.198 18.6858C165.281 18.1028 166.124 17.2678 166.685 16.1906L164.183 14.8895C163.896 15.4399 163.471 15.8744 162.861 16.2028L164.198 18.6858ZM166.674 16.21C167.242 15.1594 167.503 13.9782 167.503 12.708H164.683C164.683 13.5863 164.504 14.2931 164.193 14.8701L166.674 16.21ZM167.503 12.708C167.503 11.3949 167.259 10.1813 166.714 9.11348L164.202 10.3943C164.504 10.9867 164.683 11.7424 164.683 12.708H167.503ZM166.714 9.11348C166.15 8.00732 165.286 7.16215 164.169 6.5932L162.889 9.10602C163.498 9.41598 163.919 9.84033 164.202 10.3943L166.714 9.11348ZM164.169 6.5932C163.052 6.02406 161.734 5.78038 160.282 5.78038V8.60048C161.435 8.60048 162.281 8.79625 162.889 9.10602L164.169 6.5932ZM160.282 5.78038H154.35V8.60048H160.282V5.78038ZM152.94 7.19043V37H155.76V7.19043H152.94ZM154.35 35.59H147.025V38.41H154.35V35.59ZM148.435 37V1.45313H145.615V37H148.435ZM168.154 36.3578L160.048 20.5131L157.538 21.7974L165.643 37.6422L168.154 36.3578ZM158.802 22.5653L166.541 22.5165L166.523 19.6964L158.784 19.7453L158.802 22.5653ZM165.285 21.7643L173.488 37.3161L175.983 36.0003L167.779 20.4486L165.285 21.7643ZM173.325 36.6582V37H176.145V36.6582H173.325ZM174.735 35.59H166.898V38.41H174.735V35.59ZM179.057 1.45313V0.0430746H177.647V1.45313H179.057ZM199.32 2.67383L198.778 3.97542L198.782 3.977L199.32 2.67383ZM203.861 6.28711L205.036 5.50772L203.861 6.28711ZM204.472 17.0781L203.199 16.4719L203.195 16.4785L204.472 17.0781ZM201.762 20.4717L202.625 21.5864L202.627 21.5847L201.762 20.4717ZM197.685 22.6201L197.226 21.2867L197.124 21.3219L197.028 21.3723L197.685 22.6201ZM195.365 23.8408V25.2509H195.714L196.022 25.0886L195.365 23.8408ZM183.842 23.8408L182.432 23.8529L182.444 25.2509H183.842V23.8408ZM183.793 18.1279V16.7179H182.371L182.383 18.14L183.793 18.1279ZM197.465 15.54L196.224 14.8701L196.219 14.8797L196.214 14.8895L197.465 15.54ZM186.381 7.19043V5.78038H184.971V7.19043H186.381ZM186.381 37V38.41H187.791V37H186.381ZM179.057 37H177.647V38.41H179.057V37ZM198.93 37L197.674 37.6422L198.067 38.41H198.93V37ZM190.824 21.1553L190.815 19.7453L188.526 19.7597L189.569 21.7974L190.824 21.1553ZM198.563 21.1064L199.811 20.4486L199.411 19.691L198.555 19.6964L198.563 21.1064ZM206.767 36.6582H208.177V36.3091L208.014 36.0003L206.767 36.6582ZM206.767 37V38.41H208.177V37H206.767ZM179.057 2.86318L192.313 2.86318V0.0430746L179.057 0.0430746V2.86318ZM192.313 2.86318C194.896 2.86318 197.038 3.25044 198.778 3.97541L199.863 1.37224C197.696 0.469616 195.167 0.0430746 192.313 0.0430746V2.86318ZM198.782 3.977C200.522 4.69615 201.801 5.73168 202.686 7.06649L205.036 5.50772C203.806 3.65243 202.057 2.27911 199.859 1.37066L198.782 3.977ZM202.686 7.06649C203.561 8.38477 204.038 10.0602 204.038 12.1709H206.858C206.858 9.62667 206.278 7.37955 205.036 5.50772L202.686 7.06649ZM204.038 12.1709C204.038 13.9179 203.739 15.3364 203.199 16.4719L205.745 17.6844C206.506 16.0855 206.858 14.2324 206.858 12.1709H204.038ZM203.195 16.4785C202.655 17.6294 201.892 18.5844 200.896 19.3587L202.627 21.5847C203.976 20.5361 205.019 19.2286 205.748 17.6778L203.195 16.4785ZM200.898 19.357C199.88 20.1461 198.661 20.7933 197.226 21.2867L198.143 23.9536C199.833 23.3727 201.333 22.5876 202.625 21.5864L200.898 19.357ZM197.028 21.3723L194.709 22.593L196.022 25.0886L198.341 23.8679L197.028 21.3723ZM195.365 22.4308H183.842V25.2509H195.365V22.4308ZM185.252 23.8288L185.203 18.1159L182.383 18.14L182.432 23.8529L185.252 23.8288ZM183.793 19.538H192.362V16.7179H183.793V19.538ZM192.362 19.538C193.806 19.538 195.12 19.2832 196.229 18.6858L194.892 16.2028C194.309 16.5169 193.49 16.7179 192.362 16.7179V19.538ZM196.229 18.6858C197.312 18.1028 198.156 17.2678 198.716 16.1906L196.214 14.8895C195.928 15.4399 195.502 15.8744 194.892 16.2028L196.229 18.6858ZM198.706 16.21C199.273 15.1594 199.534 13.9782 199.534 12.708L196.714 12.708C196.714 13.5863 196.536 14.2931 196.224 14.8701L198.706 16.21ZM199.534 12.708C199.534 11.3949 199.29 10.1813 198.745 9.11348L196.233 10.3943C196.535 10.9867 196.714 11.7424 196.714 12.708L199.534 12.708ZM198.745 9.11348C198.182 8.00732 197.317 7.16215 196.201 6.5932L194.92 9.10602C195.529 9.41598 195.951 9.84033 196.233 10.3943L198.745 9.11348ZM196.201 6.5932C195.083 6.02406 193.765 5.78038 192.313 5.78038V8.60048C193.466 8.60048 194.312 8.79625 194.92 9.10602L196.201 6.5932ZM192.313 5.78038H186.381V8.60048H192.313V5.78038ZM184.971 7.19043V37H187.791V7.19043H184.971ZM186.381 35.59H179.057V38.41H186.381V35.59ZM180.467 37V1.45313H177.647V37H180.467ZM200.185 36.3578L192.08 20.5131L189.569 21.7974L197.674 37.6422L200.185 36.3578ZM190.833 22.5653L198.572 22.5165L198.555 19.6964L190.815 19.7453L190.833 22.5653ZM197.316 21.7643L205.519 37.3161L208.014 36.0003L199.811 20.4486L197.316 21.7643ZM205.357 36.6582V37H208.177V36.6582H205.357ZM206.767 35.59H198.93V38.41H206.767V35.59ZM225.541 7.53223L226.881 7.97179L226.925 7.83664L226.942 7.69535L225.541 7.53223ZM215.873 37V38.41H216.894L217.213 37.4396L215.873 37ZM208.085 37L206.763 36.5089L206.057 38.41H208.085V37ZM221.293 1.45313V0.0430746H220.313L219.971 0.962005L221.293 1.45313ZM226.249 1.45313L227.65 1.61625L227.833 0.0430746H226.249V1.45313ZM233.573 37L232.234 37.4406L232.553 38.41H233.573V37ZM223.881 7.53223L222.482 7.71196L222.499 7.84519L222.541 7.97279L223.881 7.53223ZM223.1 1.45313V0.0430746H221.497L221.701 1.63286L223.1 1.45313ZM228.104 1.45313L229.425 0.959614L229.083 0.0430746H228.104V1.45313ZM241.386 37V38.41H243.418L242.707 36.5065L241.386 37ZM233.134 23.7676H234.544V22.3575H233.134V23.7676ZM233.134 29.5049V30.9149H234.544V29.5049H233.134ZM214.359 29.5049H212.949V30.9149H214.359V29.5049ZM214.359 23.7676V22.3575H212.949V23.7676H214.359ZM224.201 7.09266L214.533 36.5604L217.213 37.4396L226.881 7.97179L224.201 7.09266ZM215.873 35.59L208.085 35.59V38.41L215.873 38.41V35.59ZM209.407 37.4911L222.615 1.94425L219.971 0.962005L206.763 36.5089L209.407 37.4911ZM221.293 2.86318H226.249V0.0430746L221.293 0.0430746V2.86318ZM224.848 1.29L224.14 7.36911L226.942 7.69535L227.65 1.61625L224.848 1.29ZM234.913 36.5594L225.22 7.09166L222.541 7.97279L232.234 37.4406L234.913 36.5594ZM225.279 7.35249L224.498 1.27339L221.701 1.63286L222.482 7.71196L225.279 7.35249ZM223.1 2.86318L228.104 2.86318V0.0430746L223.1 0.0430746V2.86318ZM226.784 1.94664L240.065 37.4935L242.707 36.5065L229.425 0.959614L226.784 1.94664ZM241.386 35.59H233.573V38.41H241.386V35.59ZM231.724 23.7676V29.5049H234.544V23.7676H231.724ZM233.134 28.0948H214.359V30.9149H233.134V28.0948ZM215.769 29.5049V23.7676H212.949V29.5049H215.769ZM214.359 25.1776H233.134V22.3575L214.359 22.3575V25.1776Z" fill="url(#paint0_linear_24_36)"/>
<defs>
<linearGradient id="paint0_linear_24_36" x1="121" y1="-7" x2="121" y2="47" gradientUnits="userSpaceOnUse">
<stop stop-color="#00A99D"/>
<stop offset="1" stop-color="#00A99D" stop-opacity="0"/>
</linearGradient>
</defs>
</svg>
